<svg xmlns="http://www.w3.org/2000/svg" xmlns:xlink="http://www.w3.org/1999/xlink" width="1200" height="1200" viewBox="0 0 1200 1200">
  <defs>
    <linearGradient id="linear-gradient" x1="0.118" y1="-0.381" x2="1.073" y2="1.342" gradientUnits="objectBoundingBox">
      <stop offset="0" stop-color="#6e00ff"/>
      <stop offset="1" stop-color="#b800ff"/>
    </linearGradient>
  </defs>
  <g id="Group_110" data-name="Group 110" transform="translate(-0.078 0.419)">
    <g id="Ellipse_12" data-name="Ellipse 12" transform="translate(0.078 -0.419)" stroke="rgba(255,255,255,0.27)" stroke-width="19" fill="url(#linear-gradient)">
      <ellipse cx="600" cy="600" rx="600" ry="600" stroke="none"/>
      <ellipse cx="600" cy="600" rx="590.5" ry="590.5" fill="none"/>
    </g>
    <path id="Path_59" data-name="Path 59" d="M704.737,1040.5l-68.592-39.6a12.654,12.654,0,0,0-1.8-.843l-121.592-70.2a38,38,0,0,0-37.99,0l-121.59,70.2a12.522,12.522,0,0,0-1.8.843l-68.592,39.6a38,38,0,0,0-18.994,32.9v221.877a37.988,37.988,0,0,0,18.994,32.9l68.592,39.6a12,12,0,0,0,1.8.84l121.59,70.2a38,38,0,0,0,37.99,0l121.592-70.2a12.123,12.123,0,0,0,1.8-.84l68.592-39.6a37.988,37.988,0,0,0,18.995-32.9v-107.79a49.876,49.876,0,0,0-49.875-49.876l-161.1,34.861-32.055,6.247a52.343,52.343,0,0,0,52.343,52.344h84.913v12.428a21.563,21.563,0,0,1-10.779,18.675l-102.636,59.257a21.553,21.553,0,0,1-21.561,0L450.3,1269.288l-69.958-7.122a21.563,21.563,0,0,1-10.779-18.675l25.635-64.771-25.635-53.538a21.555,21.555,0,0,1,10.779-18.671l69.958-3.371,32.677-55.885a21.564,21.564,0,0,1,21.564,0l72.48,41.848a35.749,35.749,0,0,0,17.863,4.787H703.44a20.291,20.291,0,0,0,20.292-20.291h0v-.2A38,38,0,0,0,704.737,1040.5Z" transform="translate(106.291 -584.185)" fill="#fff"/>
  </g>
</svg>
